Simulation
nRows=40
nColumns=15
endheader
time  TH_x TH_y TH_z SC_y  SC_z  SC_x  AC_y  AC_z  AC_x  GH_y  GH_z  GH_yy  EL_x  PS_y
0.75  0.000000  0.000000  0.000000  -33.40194452455891  3.96751154959527  20.777391554486833  60.03755640542319  -1.1557000987619195  -12.051354086287176  21.1399528088325  45.399661109330495  -17.787600128107837  19.954456563773252  0.000000
0.765  0.000000  0.000000  0.000000  -33.53224440997119  4.164073499995883  20.98530945573506  60.11065611026869  -0.774535388934724  -11.927509699558673  21.205240672717515  45.91030424581111  -18.119421758176035  19.749156448407454  0.000000
0.78  0.000000  0.000000  0.000000  -33.659606890783515  4.3638218876125645  21.201139931658872  60.17276799346329  -0.399753844593173  -11.806629023123813  21.27843486072543  46.405818847932665  -18.451148694268777  19.542838019138646  0.000000
0.7949999999999999  0.000000  0.000000  0.000000  -33.78631462685787  4.5666996177533745  21.42607956726465  60.225154335672165  -0.0332125364978495  -11.68732512922535  21.358562261171297  46.88623613524613  -18.782150781831348  19.335915091059302  0.000000
0.8099999999999999  0.000000  0.000000  0.000000  -33.9118739022803  4.772501993984392  21.659247365670932  60.26928510542044  0.32324326654115454  -11.568175424772807  21.444629184216236  47.3515644162618  -19.112090061807073  19.128696332525415  0.000000
0.825  0.000000  0.000000  0.000000  -34.03836959924461  4.981485392646217  21.901590716393358  60.30666979308001  0.6675711076251617  -11.447497731537101  21.535453989713496  47.80194737147533  -19.440197261131576  18.921703810400018  0.000000
0.84  0.000000  0.000000  0.000000  -34.165341185171776  5.193551721267592  22.152037809925503  60.33902349564911  0.9977915942060048  -11.323534089661837  21.629794869828807  48.237489669040094  -19.76584725336515  18.71541429327718  0.000000
0.855  0.000000  0.000000  0.000000  -34.29499598736233  5.408997341069225  22.411259885358202  60.36821555554271  1.3119216961183262  -11.194408077665251  21.726256329901968  48.65849951313467  -20.088144408026416  18.510396937240934  0.000000
0.87  0.000000  0.000000  0.000000  -34.426998569454796  5.627632030553618  22.677837272759668  60.39619910530405  1.6082657084328  -11.058238572576945  21.823409608905223  49.06517554890335  -20.406210551124744  18.307185866831723  0.000000
0.885  0.000000  0.000000  0.000000  -34.56368535134368  5.849620882007021  22.95193671734914  60.425004045065535  1.8854336738170476  -10.9131897335156  21.91981769593635  49.457950243375215  -20.71909377903901  18.10636417393771  0.000000
0.8999999999999999  0.000000  0.000000  0.000000  -34.70481948171549  6.074481343547931  23.231466241237342  60.45649512319169  2.1427122899908806  -10.757555370666214  22.01424078077397  49.837060168407454  -21.025858998817696  17.90852528006902  0.000000
0.9149999999999999  0.000000  0.000000  0.000000  -34.85282580857778  6.301951413885874  23.515755019999233  60.492484391133104  2.380126637359162  -10.589971501268277  22.10572174678813  50.203005474349496  -21.32576481484319  17.714297422585645  0.000000
0.9299999999999999  0.000000  0.000000  0.000000  -35.00737445145506  6.531117347534784  23.801692625692667  60.53414762564358  2.598745264820907  -10.40924899536476  22.193792824565836  50.555909678866136  -21.618105703881152  17.52436532616634  0.000000
0.945  0.000000  0.000000  0.000000  -35.17071181413129  6.761430694336189  24.087266580150068  60.5825684176576  2.8008116845465927  -10.214764407107541  22.278408854110175  50.89612446593666  -21.902437721216945  17.339508884921603  0.000000
0.96  0.000000  0.000000  0.000000  -35.34349574269115  6.991536297444388  24.367582950572213  60.63829728048901  2.9895376545825907  -10.005254592402636  22.36069581024648  51.22403435204961  -22.178816289255543  17.160799921280145  0.000000
0.975  0.000000  0.000000  0.000000  -35.52809243023936  7.220555891097263  24.642649318690268  60.70073647488512  3.1660759524584963  -9.781585227974029  22.44233487586825  51.54014520206031  -22.447488869545538  16.98936785986643  0.000000
0.99  0.000000  0.000000  0.000000  -35.72020251907203  7.447357120405557  24.911889137057713  60.76809498023501  3.331235942786044  -9.547986883992595  22.52385812094875  51.84441913813993  -22.708640195136823  16.82575716439686  0.000000
1.005  0.000000  0.000000  0.000000  -35.91706036235811  7.671776894676442  25.17646728269193  60.838259159723364  3.486284040382967  -9.30795458313471  22.6044356721923  52.13633363298921  -22.961196472108366  16.670492548318677  0.000000
1.02  0.000000  0.000000  0.000000  -36.11381455500666  7.893379104624584  25.435144517780092  60.90903580313272  3.6319711579766274  -9.064124936453203  22.683216800094737  52.415751553738154  -23.204218444974387  16.524195820182506  0.000000
1.035  0.000000  0.000000  0.000000  -36.308372489592955  8.111562809641375  25.688754145322825  60.97907815369338  3.768937428832089  -8.819356532612122  22.758515350249805  52.68332594221472  -23.436795378621582  16.386891440092025  0.000000
1.05  0.000000  0.000000  0.000000  -36.496635569846184  8.324788798853833  25.93579123947959  61.04689242982855  3.898043121405739  -8.576036727860178  22.828200013531355  52.939682530717626  -23.65740700272024  16.258902636481352  0.000000
1.065  0.000000  0.000000  0.000000  -36.679884636154874  8.533635387235565  26.17714256216188  61.1117818968495  4.0196388464989585  -8.335362719177516  22.89046583139314  53.184994768108744  -23.864406708646587  16.14144705151923  0.000000
1.08  0.000000  0.000000  0.000000  -36.85837016755868  8.737259792110889  26.411807146658003  61.1743386914454  4.1341677644639105  -8.097844840640882  22.943830975436345  53.41946839066321  -24.056351267220474  16.034862424567855  0.000000
1.095  0.000000  0.000000  0.000000  -37.03500816474254  8.934696973608592  26.64127771753764  61.23557757284712  4.242254914057517  -7.86446939124181  22.98667545533456  53.6435161737785  -24.23235543587669  15.939342517464155  0.000000
1.1099999999999999  0.000000  0.000000  0.000000  -37.20932512624917  9.124467690461318  26.86475126224779  61.29610786429125  4.344135941632895  -7.636473343187849  23.01709456080671  53.85772382948519  -24.3914132492804  15.8546943639506  0.000000
1.125  0.000000  0.000000  0.000000  -37.38203201285478  9.305198482226482  27.083974531273466  61.35595540771669  4.4401641637552185  -7.416125543055904  23.031974455444583  54.06246079093993  -24.531349373584572  15.781517168239226  0.000000
1.14  0.000000  0.000000  0.000000  -37.550250686599014  9.475430357312032  27.29786221756396  61.41462147437027  4.530671908388842  -7.205530584409008  23.028993497024818  54.25804756260083  -24.65062389932457  15.720728892662901  0.000000
1.155  0.000000  0.000000  0.000000  -37.71572080822756  9.635022521983801  27.507223567959254  61.47311205398705  4.615349153007354  -7.004809590479879  23.00909507144995  54.44579142148833  -24.750227132927055  15.670967613431756  0.000000
1.17  0.000000  0.000000  0.000000  -37.87681041791276  9.783497665710765  27.709853764979073  61.531439660698304  4.694313497938898  -6.814313532729739  22.974664222794377  54.62688302498101  -24.832102554284265  15.632152638220187  0.000000
1.185  0.000000  0.000000  0.000000  -38.033984461252125  9.921582355169916  27.90596813528262  61.5888173029965  4.76793676136441  -6.6346491430947845  22.9275430288085  54.80155642154617  -24.897130287101866  15.605356247623316  0.000000
1.2  0.000000  0.000000  0.000000  -38.18475963210114  10.048411946386661  28.093354107920568  61.64475372782475  4.836793526995664  -6.466786004797708  22.869768097075063  54.970029765021614  -24.946517325906896  15.590531675404902  0.000000
1.2149999999999999  0.000000  0.000000  0.000000  -38.329726475898184  10.163239967635121  28.27221471812185  61.699516376705176  4.901995048022562  -6.312045307594163  22.803257827093507  55.13191485391634  -24.981710532195905  15.587682772485838  0.000000
1.23  0.000000  0.000000  0.000000  -38.46762583781263  10.26497690398672  28.43997907041492  61.753008421588824  4.9645529110425946  -6.17095806238563  22.73121282265495  55.28627569492707  -25.0045902006138  15.5967600849235  0.000000
1.2449999999999999  0.000000  0.000000  0.000000  -38.600611364734334  10.353332368490978  28.59649591313739  61.805748331553055  5.025532395496317  -6.043847336093214  22.657408843602195  55.43132661104411  -25.017745448123577  15.617479223578586  0.000000
1.26  0.000000  0.000000  0.000000  -38.72604336517288  10.425717202462625  28.738607820759114  61.8580018254549  5.086832109081443  -5.932512100612914  22.585390401459975  55.564804978021535  -25.023687891700654  15.64902688054262  0.000000
1.275  0.000000  0.000000  0.000000  -38.843949061246796  10.480035370098859  28.865304681227197  61.91048371498553  5.1507427733321745  -5.8391149370007955  22.518681112046306  55.68308043035015  -25.02528075287218  15.690583270842161  0.000000
1.29  0.000000  0.000000  0.000000  -38.95231416083539  10.514112472132885  28.972412969559425  61.96304323032306  5.218873247943629  -5.764964331975637  22.462104459847975  55.781432438237026  -25.02587364973415  15.741340336581171  0.000000
1.305  0.000000  0.000000  0.000000  -39.0518157800132  10.525182669668558  29.058329294402952  62.01656541115028  5.293292018884133  -5.712598940421764  22.420341463705014  55.853359588426976  -25.028847392861813  15.799996193758567  0.000000
1.3199999999999998  0.000000  0.000000  0.000000  -39.13928989315816  10.508946877421948  29.11856037002962  62.07087418119479  5.37525298395884  -5.685647216713459  22.398510224577493  55.89128304805569  -25.0379186176497  15.865427891463892  0.000000
1.335  0.000000  0.000000  0.000000  -39.214277745231094  10.462858675717406  29.151764112717863  62.12630067565983  5.464477948227047  -5.688691129386434  22.40198013876463  55.885351000210484  -25.05670960566021  15.935183966157444  0.000000
